<svg width="41" height="40" viewBox="0 0 41 40" fill="none" xmlns="http://www.w3.org/2000/svg">
<path d="M0 19.2C0 10.1488 -2.72795e-06 5.6186 2.88144 2.81116C5.76288 0.00371818 10.4025 0 19.68 0H21.32C30.5975 0 35.2409 -2.66142e-06 38.1186 2.81116C40.9962 5.62232 41 10.1488 41 19.2V20.8C41 29.8512 41 34.3814 38.1186 37.1888C35.2371 39.9963 30.5975 40 21.32 40H19.68C10.4025 40 5.75907 40 2.88144 37.1888C0.00381113 34.3777 0 29.8512 0 20.8V19.2Z" fill="#0057FF"/>
<path d="M15.8165 12.1172C16.4782 12.1064 17.1388 12.1726 17.7845 12.3144C18.3297 12.4303 18.8474 12.6462 19.3101 12.9507C19.7352 13.2527 20.0719 13.6581 20.2864 14.1265C20.5323 14.703 20.6506 15.3237 20.6335 15.9479C20.6623 16.6337 20.4832 17.3125 20.1186 17.8995C19.7376 18.453 19.2105 18.8958 18.593 19.1814C19.4354 19.4026 20.1691 19.9099 20.6621 20.6121C21.1347 21.356 21.3727 22.2191 21.3467 23.0939C21.3572 23.7924 21.2046 24.4839 20.9005 25.1163C20.6223 25.6686 20.2162 26.1501 19.7143 26.5228C19.1974 26.8908 18.6157 27.1632 17.9981 27.3265C17.3571 27.4989 16.695 27.5853 16.0301 27.5832H8.72824V12.1172H15.8165ZM15.395 18.3739C15.9152 18.3947 16.4273 18.2433 16.8481 17.9442C17.0491 17.7694 17.2055 17.5512 17.3048 17.307C17.4042 17.0628 17.4437 16.7994 17.4202 16.5377C17.4313 16.2312 17.3658 15.9266 17.2295 15.6502C17.117 15.4292 16.9416 15.2444 16.7242 15.1181C16.5043 14.9801 16.2576 14.8876 15.9995 14.8465C15.7189 14.7926 15.4331 14.7683 15.1471 14.7739H12.0292V18.3888H15.3874L15.395 18.3739ZM15.5857 24.96C15.9001 24.9635 16.2138 24.9304 16.5201 24.8614C16.8 24.8005 17.0653 24.6881 17.302 24.5302C17.5336 24.373 17.7205 24.1612 17.8455 23.9144C17.9899 23.599 18.0552 23.2547 18.0362 22.9098C18.0672 22.5952 18.0242 22.2778 17.9105 21.9818C17.7968 21.6859 17.6155 21.4191 17.3802 21.2019C16.88 20.8439 16.268 20.6664 15.6487 20.6995H12.0387V24.96H15.5857Z" fill="white"/>
<path d="M26.0436 24.9023C26.303 25.1372 26.6087 25.3181 26.9422 25.4339C27.2756 25.5497 27.6298 25.598 27.983 25.5758C28.5426 25.5898 29.0915 25.4238 29.5448 25.1033C29.9142 24.8692 30.1938 24.5225 30.34 24.1172H32.9774C32.6968 25.2703 32.0105 26.2908 31.038 27.0009C30.1051 27.605 29.0029 27.9113 27.8838 27.8772C27.0853 27.8862 26.293 27.7395 25.5535 27.4456C24.8848 27.1737 24.2853 26.7622 23.7972 26.24C23.3101 25.6951 22.9358 25.0633 22.6949 24.3795C22.4277 23.6126 22.2986 22.8062 22.3135 21.9963C22.3082 21.1998 22.445 20.4084 22.7178 19.6577C23.0834 18.6013 23.7826 17.685 24.7152 17.0406C25.6479 16.3961 26.7658 16.0566 27.9086 16.0707C28.752 16.0525 29.5863 16.2446 30.3324 16.6288C31.0083 16.9927 31.5905 17.5016 32.0353 18.1172C32.4875 18.7598 32.811 19.4801 32.9888 20.24C33.1855 21.0575 33.2555 21.899 33.1966 22.7367H25.3418C25.2802 23.52 25.5317 24.296 26.0436 24.9023V24.9023ZM29.4895 19.0195C29.2695 18.8052 29.0052 18.6392 28.7141 18.5327C28.423 18.4262 28.112 18.3816 27.8018 18.4019C27.3902 18.387 26.9816 18.4761 26.6157 18.6605C26.3226 18.8159 26.0635 19.0257 25.8529 19.2781C25.6686 19.514 25.5315 19.7816 25.4486 20.067C25.3735 20.3047 25.3268 20.55 25.3094 20.7981H30.176C30.1332 20.1512 29.8913 19.532 29.4819 19.0214L29.4895 19.0195Z" fill="white"/>
<path d="M30.7881 13.1516H24.6915V14.6716H30.7881V13.1516Z" fill="white"/>
</svg>
