<svg width="41" height="41" viewBox="0 0 41 41" fill="none" xmlns="http://www.w3.org/2000/svg">
<path d="M0 19.68C0 10.4026 -2.72795e-06 5.75907 2.88144 2.88144C5.76288 0.00381113 10.4025 0 19.68 0H21.32C30.5975 0 35.2409 -2.72795e-06 38.1186 2.88144C40.9962 5.76288 41 10.4026 41 19.68V21.32C41 30.5974 41 35.2409 38.1186 38.1186C35.2371 40.9962 30.5975 41 21.32 41H19.68C10.4025 41 5.75907 41 2.88144 38.1186C0.00381113 35.2371 0 30.5974 0 21.32V19.68Z" fill="white"/>
<path d="M15.8165 12.4201C16.4782 12.409 17.1389 12.4769 17.7845 12.6223C18.3298 12.741 18.8475 12.9623 19.3101 13.2744C19.7353 13.584 20.0719 13.9995 20.2865 14.4797C20.5323 15.0706 20.6506 15.7068 20.6335 16.3466C20.6623 17.0495 20.4832 17.7453 20.1186 18.347C19.7376 18.9143 19.2106 19.3682 18.5931 19.6609C19.4354 19.8876 20.1692 20.4077 20.6621 21.1274C21.1347 21.8899 21.3728 22.7745 21.3467 23.6713C21.3573 24.3872 21.2047 25.096 20.9005 25.7442C20.6224 26.3103 20.2163 26.8038 19.7144 27.1858C19.1975 27.5631 18.6157 27.8423 17.9981 28.0097C17.3571 28.1864 16.695 28.2749 16.0301 28.2728H8.72827V12.4201H15.8165ZM15.3951 18.8333C15.9153 18.8546 16.4274 18.6993 16.8482 18.3928C17.0492 18.2136 17.2056 17.9899 17.3049 17.7397C17.4042 17.4894 17.4437 17.2193 17.4203 16.9511C17.4313 16.6369 17.3658 16.3248 17.2296 16.0415C17.1171 15.8149 16.9416 15.6255 16.7242 15.4961C16.5043 15.3546 16.2577 15.2598 15.9996 15.2177C15.7189 15.1624 15.4331 15.1375 15.1472 15.1433H12.0292V18.8485H15.3874L15.3951 18.8333ZM15.5858 25.584C15.9001 25.5876 16.2138 25.5536 16.5202 25.4829C16.8 25.4205 17.0654 25.3053 17.302 25.1435C17.5336 24.9823 17.7206 24.7652 17.8455 24.5123C17.9899 24.189 18.0552 23.836 18.0362 23.4825C18.0672 23.16 18.0242 22.8347 17.9105 22.5314C17.7969 22.228 17.6155 21.9546 17.3802 21.7319C16.8801 21.365 16.2681 21.183 15.6487 21.217H12.0388V25.584H15.5858Z" fill="black"/>
<path d="M26.0434 25.5249C26.3029 25.7657 26.6086 25.9511 26.9421 26.0697C27.2755 26.1884 27.6296 26.2379 27.9828 26.2152C28.5425 26.2296 29.0914 26.0594 29.5447 25.7308C29.9141 25.491 30.1937 25.1356 30.3399 24.7201H32.9772C32.6967 25.902 32.0104 26.9481 31.0378 27.6759C30.105 28.2952 29.0028 28.6091 27.8837 28.5741C27.0852 28.5834 26.2929 28.433 25.5534 28.1317C24.8847 27.8531 24.2852 27.4313 23.797 26.896C23.31 26.3374 22.9357 25.6899 22.6948 24.989C22.4276 24.2029 22.2985 23.3764 22.3134 22.5462C22.3081 21.7297 22.4449 20.9186 22.7177 20.1491C23.0832 19.0663 23.7825 18.1272 24.7151 17.4666C25.6477 16.806 26.7657 16.458 27.9085 16.4725C28.7519 16.4538 29.5862 16.6508 30.3323 17.0446C31.0081 17.4175 31.5904 17.9392 32.0352 18.5701C32.4873 19.2288 32.8108 19.9671 32.9887 20.746C33.1853 21.5839 33.2554 22.4465 33.1965 23.3052H25.3417C25.2801 24.1079 25.5315 24.9034 26.0434 25.5249V25.5249ZM29.4894 19.495C29.2694 19.2753 29.005 19.1052 28.714 18.996C28.4229 18.8868 28.1119 18.8411 27.8017 18.8619C27.3901 18.8467 26.9815 18.938 26.6155 19.127C26.3225 19.2863 26.0634 19.5014 25.8527 19.7601C25.6685 20.0019 25.5313 20.2762 25.4485 20.5686C25.3734 20.8123 25.3267 21.0637 25.3093 21.3181H30.1759C30.1331 20.655 29.8911 20.0203 29.4817 19.4969L29.4894 19.495Z" fill="black"/>
<path d="M30.7883 13.4804H24.6917V15.0384H30.7883V13.4804Z" fill="black"/>
</svg>
