<svg width="41" height="41" viewBox="0 0 41 41" fill="none" xmlns="http://www.w3.org/2000/svg">
<path d="M0 19.68C0 10.4026 -2.72795e-06 5.75907 2.88144 2.88144C5.76288 0.00381386 10.4026 0 19.68 0H21.32C30.5974 0 35.2409 0 38.1186 2.88144C40.9962 5.76288 41 10.4026 41 19.68V21.32C41 30.5974 41 35.2409 38.1186 38.1186C35.2371 40.9962 30.5974 41 21.32 41H19.68C10.4026 41 5.75907 41 2.88144 38.1186C0.00381113 35.2371 0 30.5974 0 21.32V19.68Z" fill="white"/>
<path fill-rule="evenodd" clip-rule="evenodd" d="M20.5 9.06769C23.6045 9.06769 23.9935 9.08104 25.214 9.13634C26.1623 9.15559 27.1005 9.33549 27.9887 9.66839C28.7482 9.96154 29.4381 10.4104 30.0138 10.9861C30.5895 11.5619 31.0384 12.2517 31.3316 13.0113C31.6645 13.8995 31.8444 14.8377 31.8636 15.786C31.9189 17.0064 31.9323 17.3955 31.9323 20.5C31.9323 23.6046 31.9189 23.9936 31.8636 25.2141C31.8444 26.1624 31.6645 27.1005 31.3316 27.9887C31.0384 28.7483 30.5895 29.4382 30.0138 30.0139C29.4381 30.5896 28.7482 31.0385 27.9887 31.3316C27.1005 31.6645 26.1623 31.8444 25.214 31.8637C23.9935 31.919 23.6045 31.9323 20.5 31.9323C17.3954 31.9323 17.0064 31.919 15.7859 31.8637C14.8376 31.8444 13.8994 31.6645 13.0113 31.3316C12.2517 31.0385 11.5618 30.5896 10.9861 30.0139C10.4104 29.4382 9.96149 28.7483 9.66833 27.9887C9.33543 27.1005 9.15553 26.1624 9.13628 25.2141C9.08098 23.9936 9.06763 23.6046 9.06763 20.5C9.06763 17.3955 9.08098 17.0064 9.13628 15.786C9.15553 14.8377 9.33543 13.8995 9.66833 13.0113C9.96149 12.2517 10.4104 11.5619 10.9861 10.9861C11.5618 10.4104 12.2517 9.96154 13.0113 9.66839C13.8994 9.33549 14.8376 9.15559 15.7859 9.13634C17.0064 9.08104 17.3954 9.06769 20.5 9.06769ZM25.1187 11.194C23.9134 11.1387 23.553 11.1272 20.5 11.1272C17.4469 11.1272 17.0865 11.1387 15.8813 11.194C15.1557 11.2023 14.437 11.3359 13.7569 11.5887C13.264 11.7786 12.8165 12.0696 12.443 12.4431C12.0696 12.8165 11.7785 13.2641 11.5887 13.7569C11.3358 14.4371 11.2023 15.1558 11.1939 15.8813C11.1386 17.0865 11.1272 17.4469 11.1272 20.5C11.1272 23.5531 11.1386 23.9135 11.1939 25.1187C11.2023 25.8443 11.3358 26.563 11.5887 27.2431C11.7785 27.7359 12.0696 28.1835 12.443 28.557C12.8165 28.9304 13.264 29.2215 13.7569 29.4113C14.437 29.6642 15.1557 29.7977 15.8813 29.8061C17.0865 29.8614 17.4469 29.8728 20.5 29.8728C23.553 29.8728 23.9134 29.8614 25.1187 29.8061C25.8442 29.7977 26.5629 29.6642 27.243 29.4113C27.7359 29.2215 28.1834 28.9304 28.5569 28.557C28.9304 28.1835 29.2214 27.7359 29.4113 27.2431C29.6641 26.563 29.7977 25.8443 29.806 25.1187C29.8613 23.9135 29.8727 23.5531 29.8727 20.5C29.8727 17.4469 29.8613 17.0865 29.806 15.8813C29.7977 15.1558 29.6641 14.4371 29.4113 13.7569C29.2214 13.2641 28.9304 12.8165 28.5569 12.4431C28.1834 12.0696 27.7359 11.7786 27.243 11.5887C26.5629 11.3359 25.8442 11.2023 25.1187 11.194V11.194ZM20.5 24.3102C21.2543 24.3102 21.9917 24.0865 22.6189 23.6674C23.2461 23.2483 23.7349 22.6526 24.0236 21.9557C24.3123 21.2588 24.3878 20.492 24.2406 19.7521C24.0935 19.0123 23.7302 18.3327 23.1968 17.7993C22.6634 17.2659 21.9839 16.9027 21.244 16.7555C20.5042 16.6084 19.7373 16.6839 19.0404 16.9726C18.3435 17.2612 17.7479 17.7501 17.3288 18.3773C16.9097 19.0045 16.686 19.7419 16.686 20.4962C16.686 21.5077 17.0878 22.4778 17.8031 23.1931C18.5183 23.9083 19.4884 24.3102 20.5 24.3102V24.3102ZM20.5 14.6284C21.6612 14.6284 22.7965 14.9728 23.762 15.618C24.7276 16.2631 25.4802 17.1802 25.9246 18.2531C26.369 19.3259 26.4853 20.5065 26.2587 21.6455C26.0322 22.7845 25.4729 23.8307 24.6518 24.6518C23.8306 25.473 22.7844 26.0322 21.6454 26.2588C20.5065 26.4853 19.3259 26.3691 18.253 25.9246C17.1801 25.4802 16.2631 24.7277 15.6179 23.7621C14.9727 22.7965 14.6284 21.6613 14.6284 20.5C14.6284 19.7289 14.7802 18.9654 15.0753 18.2531C15.3704 17.5407 15.8029 16.8934 16.3481 16.3482C17.4493 15.247 18.9427 14.6284 20.5 14.6284V14.6284ZM27.9753 14.3977C27.9753 14.6692 27.8948 14.9347 27.7439 15.1605C27.593 15.3863 27.3786 15.5623 27.1277 15.6662C26.8768 15.7701 26.6008 15.7973 26.3344 15.7443C26.0681 15.6914 25.8234 15.5606 25.6314 15.3686C25.4394 15.1765 25.3086 14.9319 25.2556 14.6656C25.2027 14.3992 25.2298 14.1231 25.3338 13.8723C25.4377 13.6214 25.6137 13.4069 25.8395 13.2561C26.0653 13.1052 26.3307 13.0247 26.6023 13.0247C26.9664 13.0247 27.3157 13.1693 27.5732 13.4268C27.8306 13.6843 27.9753 14.0335 27.9753 14.3977V14.3977Z" fill="black"/>
</svg>
