<svg width="41" height="40" viewBox="0 0 41 40" fill="none" xmlns="http://www.w3.org/2000/svg">
<path d="M0 19.2C0 10.1488 -2.72795e-06 5.6186 2.88144 2.81116C5.76288 0.00372084 10.4026 0 19.68 0H21.32C30.5974 0 35.2409 0 38.1186 2.81116C40.9962 5.62233 41 10.1488 41 19.2V20.8C41 29.8512 41 34.3814 38.1186 37.1888C35.2371 39.9963 30.5974 40 21.32 40H19.68C10.4026 40 5.75907 40 2.88144 37.1888C0.00381113 34.3777 0 29.8512 0 20.8V19.2Z" fill="url(#paint0_radial_3_86)"/>
<path fill-rule="evenodd" clip-rule="evenodd" d="M20.5 8.8465C23.6045 8.8465 23.9936 8.85952 25.214 8.91347C26.1623 8.93225 27.1005 9.10776 27.9887 9.43254C28.7483 9.71855 29.4381 10.1565 30.0138 10.7182C30.5896 11.2799 31.0385 11.9529 31.3316 12.6939C31.6645 13.5604 31.8444 14.4757 31.8637 15.4009C31.919 16.5916 31.9323 16.9711 31.9323 20C31.9323 23.0288 31.919 23.4084 31.8637 24.5991C31.8444 25.5242 31.6645 26.4395 31.3316 27.306C31.0385 28.0471 30.5896 28.7201 30.0138 29.2818C29.4381 29.8435 28.7483 30.2814 27.9887 30.5674C27.1005 30.8922 26.1623 31.0677 25.214 31.0865C23.9936 31.1404 23.6045 31.1535 20.5 31.1535C17.3954 31.1535 17.0064 31.1404 15.7859 31.0865C14.8376 31.0677 13.8995 30.8922 13.0113 30.5674C12.2517 30.2814 11.5619 29.8435 10.9861 29.2818C10.4104 28.7201 9.96152 28.0471 9.66836 27.306C9.33546 26.4395 9.15556 25.5242 9.13631 24.5991C9.08101 23.4084 9.06766 23.0288 9.06766 20C9.06766 16.9711 9.08101 16.5916 9.13631 15.4009C9.15556 14.4757 9.33546 13.5604 9.66836 12.6939C9.96152 11.9529 10.4104 11.2799 10.9861 10.7182C11.5619 10.1565 12.2517 9.71855 13.0113 9.43254C13.8995 9.10776 14.8376 8.93225 15.7859 8.91347C17.0064 8.85952 17.3954 8.8465 20.5 8.8465ZM25.1187 10.9209C23.9135 10.867 23.5531 10.8558 20.5 10.8558C17.4469 10.8558 17.0865 10.867 15.8813 10.9209C15.1557 10.9291 14.437 11.0593 13.7569 11.306C13.2641 11.4913 12.8165 11.7752 12.443 12.1396C12.0696 12.5039 11.7785 12.9406 11.5887 13.4214C11.3358 14.0849 11.2023 14.7861 11.1939 15.4939C11.1386 16.6698 11.1272 17.0214 11.1272 20C11.1272 22.9786 11.1386 23.3302 11.1939 24.506C11.2023 25.2139 11.3358 25.915 11.5887 26.5786C11.7785 27.0594 12.0696 27.4961 12.443 27.8604C12.8165 28.2248 13.2641 28.5087 13.7569 28.6939C14.437 28.9406 15.1557 29.0709 15.8813 29.0791C17.0865 29.133 17.4469 29.1442 20.5 29.1442C23.5531 29.1442 23.9135 29.133 25.1187 29.0791C25.8442 29.0709 26.5629 28.9406 27.2431 28.6939C27.7359 28.5087 28.1835 28.2248 28.5569 27.8604C28.9304 27.4961 29.2214 27.0594 29.4113 26.5786C29.6641 25.915 29.7977 25.2139 29.806 24.506C29.8613 23.3302 29.8728 22.9786 29.8728 20C29.8728 17.0214 29.8613 16.6698 29.806 15.4939C29.7977 14.7861 29.6641 14.0849 29.4113 13.4214C29.2214 12.9406 28.9304 12.5039 28.5569 12.1396C28.1835 11.7752 27.7359 11.4913 27.2431 11.306C26.5629 11.0593 25.8442 10.9291 25.1187 10.9209V10.9209ZM20.5 23.7172C21.2543 23.7172 21.9917 23.499 22.6189 23.0901C23.2461 22.6812 23.735 22.1001 24.0236 21.4202C24.3123 20.7403 24.3878 19.9921 24.2407 19.2703C24.0935 18.5486 23.7303 17.8856 23.1969 17.3652C22.6635 16.8448 21.9839 16.4904 21.244 16.3468C20.5042 16.2033 19.7374 16.2769 19.0405 16.5586C18.3435 16.8402 17.7479 17.3171 17.3288 17.929C16.9097 18.5409 16.686 19.2603 16.686 19.9963C16.686 20.9831 17.0879 21.9296 17.8031 22.6274C18.5184 23.3252 19.4885 23.7172 20.5 23.7172V23.7172ZM20.5 14.2716C21.6613 14.2716 22.7965 14.6076 23.7621 15.237C24.7276 15.8665 25.4802 16.7611 25.9246 17.8078C26.369 18.8546 26.4853 20.0063 26.2587 21.1175C26.0322 22.2287 25.473 23.2494 24.6518 24.0506C23.8307 24.8517 22.7845 25.3973 21.6455 25.6183C20.5065 25.8393 19.3259 25.7259 18.253 25.2923C17.1801 24.8587 16.2631 24.1245 15.6179 23.1825C14.9728 22.2405 14.6284 21.133 14.6284 20C14.6284 19.2477 14.7803 18.5028 15.0754 17.8078C15.3704 17.1128 15.8029 16.4813 16.3482 15.9494C17.4493 14.8751 18.9427 14.2716 20.5 14.2716V14.2716ZM27.9753 14.0465C27.9753 14.3114 27.8948 14.5704 27.7439 14.7907C27.5931 15.011 27.3786 15.1827 27.1277 15.2841C26.8769 15.3855 26.6008 15.412 26.3344 15.3603C26.0681 15.3086 25.8235 15.181 25.6314 14.9937C25.4394 14.8064 25.3087 14.5677 25.2557 14.3078C25.2027 14.048 25.2299 13.7786 25.3338 13.5339C25.4377 13.2891 25.6137 13.0799 25.8395 12.9327C26.0653 12.7855 26.3308 12.707 26.6023 12.707C26.9665 12.707 27.3157 12.8481 27.5732 13.0993C27.8307 13.3505 27.9753 13.6912 27.9753 14.0465V14.0465Z" fill="white"/>
<defs>
<radialGradient id="paint0_radial_3_86" cx="0" cy="0" r="1" gradientUnits="userSpaceOnUse" gradientTransform="translate(8.26238 41.4916) rotate(-40.9884) scale(67.4307 38.3147)">
<stop stop-color="#F9D27A"/>
<stop offset="0.05" stop-color="#F8C871"/>
<stop offset="0.14" stop-color="#F5AD58"/>
<stop offset="0.25" stop-color="#EF8130"/>
<stop offset="0.26" stop-color="#EF7E2D"/>
<stop offset="0.36" stop-color="#F04C3E"/>
<stop offset="0.38" stop-color="#ED4A45"/>
<stop offset="0.49" stop-color="#D43E79"/>
<stop offset="0.55" stop-color="#CA398E"/>
<stop offset="0.7" stop-color="#8D3CC8"/>
<stop offset="0.9" stop-color="#304DF0"/>
</radialGradient>
</defs>
</svg>
