<svg width="41" height="40" viewBox="0 0 41 40" fill="none" xmlns="http://www.w3.org/2000/svg">
<path d="M0 19.2C0 10.1488 0 5.6186 2.88144 2.81116C5.76288 0.00371818 10.4026 0 19.68 0H21.32C30.5974 0 35.2409 -2.66142e-06 38.1186 2.81116C40.9962 5.62232 41 10.1488 41 19.2V20.8C41 29.8512 41 34.3814 38.1186 37.1888C35.2371 39.9963 30.5974 40 21.32 40H19.68C10.4026 40 5.75907 40 2.88144 37.1888C0.00381386 34.3777 0 29.8512 0 20.8V19.2Z" fill="#E60023"/>
<path d="M20.8452 9.87164C14.5788 9.87164 11.3198 13.9479 11.3198 18.4298C11.3198 20.5079 12.4068 23.0809 14.2451 23.8902C14.4949 24.054 14.6627 23.9721 14.6627 23.7284L15.0804 22.1786C15.1223 21.9758 15.1223 21.853 14.9965 21.7712C14.3271 20.9563 13.9095 19.734 13.9095 18.5116C13.9095 15.373 16.3333 12.3963 20.4275 12.3963C24.0203 12.3963 26.5299 14.72 26.5299 18.1042C26.5299 21.9349 24.5256 24.6158 21.9359 24.6158C21.6029 24.6213 21.2729 24.5538 20.9703 24.4182C20.6676 24.2826 20.4 24.0823 20.1873 23.8323C19.9746 23.5823 19.8222 23.2888 19.7413 22.9736C19.6604 22.6584 19.6532 22.3295 19.72 22.0112C20.1396 20.3368 20.9748 18.5861 20.9748 17.36C20.9748 16.2196 20.3894 15.3135 19.1365 15.3135C17.7158 15.3135 16.4667 16.7796 16.4667 18.7368C16.4502 19.464 16.5925 20.1864 16.8844 20.8558L15.2119 27.8661C14.9621 29.1312 15.088 30.9637 15.2119 32.0651C15.231 32.2512 15.3302 32.5935 15.58 32.6382C15.6842 32.6463 15.7886 32.6257 15.8814 32.5786C15.9741 32.5316 16.0514 32.46 16.1044 32.3721C16.7299 31.3916 17.63 29.7861 17.9618 28.5768L18.9649 25.1926C19.4245 26.0893 20.8032 26.8242 22.2239 26.8242C26.6519 26.8242 29.7431 22.9172 29.7431 18.0205C29.7488 13.3768 25.8586 9.87164 20.8452 9.87164Z" fill="white"/>
</svg>
