<svg width="41" height="41" viewBox="0 0 41 41" fill="none" xmlns="http://www.w3.org/2000/svg">
<path d="M0 19.68C0 10.4026 0 5.75907 2.88144 2.88144C5.76288 0.00381113 10.4026 0 19.68 0H21.32C30.5974 0 35.2409 -2.72795e-06 38.1186 2.88144C40.9962 5.76288 41 10.4026 41 19.68V21.32C41 30.5974 41 35.2409 38.1186 38.1186C35.2371 40.9962 30.5974 41 21.32 41H19.68C10.4026 41 5.75907 41 2.88144 38.1186C0.00381386 35.2371 0 30.5974 0 21.32V19.68Z" fill="white"/>
<path d="M20.8452 10.1184C14.5788 10.1184 11.3198 14.2966 11.3198 18.8905C11.3198 21.0206 12.4068 23.6579 14.2451 24.4875C14.4949 24.6553 14.6628 24.5714 14.6628 24.3216L15.0804 22.7331C15.1223 22.5252 15.1223 22.3993 14.9965 22.3154C14.3271 21.4802 13.9095 20.2273 13.9095 18.9744C13.9095 15.7573 16.3333 12.7062 20.4275 12.7062C24.0203 12.7062 26.5299 15.088 26.5299 18.5568C26.5299 22.4832 24.5256 25.2312 21.936 25.2312C21.603 25.2368 21.2729 25.1676 20.9703 25.0286C20.6676 24.8896 20.4 24.6844 20.1873 24.4281C19.9746 24.1718 19.8222 23.871 19.7413 23.5479C19.6604 23.2248 19.6532 22.8877 19.7201 22.5614C20.1396 20.8452 20.9748 19.0507 20.9748 17.794C20.9748 16.625 20.3894 15.6963 19.1365 15.6963C17.7158 15.6963 16.4668 17.199 16.4668 19.2052C16.4502 19.9506 16.5926 20.691 16.8844 21.3772L15.212 28.5627C14.9621 29.8594 15.088 31.7378 15.212 32.8667C15.231 33.0574 15.3302 33.4083 15.58 33.4541C15.6842 33.4624 15.7886 33.4413 15.8814 33.3931C15.9741 33.3448 16.0514 33.2715 16.1044 33.1814C16.7299 32.1764 17.63 30.5307 17.9618 29.2911L18.9649 25.8224C19.4245 26.7415 20.8032 27.4948 22.2239 27.4948C26.6519 27.4948 29.7431 23.4901 29.7431 18.471C29.7488 13.7112 25.8586 10.1184 20.8452 10.1184Z" fill="black"/>
</svg>
