<svg width="41" height="41" viewBox="0 0 41 41" fill="none" xmlns="http://www.w3.org/2000/svg">
<path d="M0 19.68C0 10.4026 -2.72795e-06 5.75907 2.88144 2.88144C5.76288 0.00381386 10.4026 0 19.68 0H21.32C30.5974 0 35.2409 0 38.1186 2.88144C40.9962 5.76288 41 10.4026 41 19.68V21.32C41 30.5974 41 35.2409 38.1186 38.1186C35.2371 40.9962 30.5974 41 21.32 41H19.68C10.4026 41 5.75907 41 2.88144 38.1186C0.00381113 35.2371 0 30.5974 0 21.32V19.68Z" fill="white"/>
<path fill-rule="evenodd" clip-rule="evenodd" d="M8.446 20.0233C15.0022 17.1666 19.3743 15.2832 21.5622 14.3729C27.8094 11.7737 29.1062 11.3217 29.9529 11.3084C30.2637 11.301 30.5689 11.3925 30.8244 11.5697C31.0031 11.7255 31.1173 11.9424 31.1448 12.178C31.1903 12.4712 31.2031 12.7686 31.1829 13.0647C30.8435 16.6212 29.3789 25.2522 28.6333 29.234C28.3186 30.9197 27.6988 31.4861 27.0962 31.5414C25.79 31.6616 24.7983 30.6776 23.534 29.848C21.5546 28.5513 20.4352 27.7504 18.5148 26.4765C16.2932 25.0138 17.733 24.2091 18.9992 22.8952C19.331 22.55 25.0844 17.3154 25.1969 16.8405C25.2113 16.7708 25.2094 16.6987 25.1912 16.6299C25.173 16.561 25.139 16.4974 25.092 16.4439C25.0237 16.3998 24.9458 16.3726 24.8649 16.3647C24.784 16.3567 24.7023 16.3682 24.6267 16.3981C24.4284 16.4439 21.266 18.5339 15.1395 22.6683C14.2407 23.2861 13.4277 23.5868 12.7005 23.5703C11.8957 23.5531 10.3511 23.1164 9.20308 22.7426C7.79573 22.285 6.67634 22.0428 6.77359 21.2647C6.82317 20.8579 7.38064 20.4441 8.446 20.0233Z" fill="black"/>
</svg>
