<svg width="41" height="40" viewBox="0 0 41 40" fill="none" xmlns="http://www.w3.org/2000/svg">
<path d="M0 19.2C0 10.1488 -2.72795e-06 5.6186 2.88144 2.81116C5.76288 0.00372084 10.4026 0 19.68 0H21.32C30.5974 0 35.2409 0 38.1186 2.81116C40.9962 5.62233 41 10.1488 41 19.2V20.8C41 29.8512 41 34.3814 38.1186 37.1888C35.2371 39.9963 30.5974 40 21.32 40H19.68C10.4026 40 5.75907 40 2.88144 37.1888C0.00381113 34.3777 0 29.8512 0 20.8V19.2Z" fill="url(#paint0_linear_3_9)"/>
<path fill-rule="evenodd" clip-rule="evenodd" d="M8.446 19.5349C15.0022 16.7479 19.3743 14.9104 21.5622 14.0223C27.8094 11.4865 29.1062 11.0456 29.9529 11.0326C30.2637 11.0254 30.5689 11.1146 30.8244 11.2875C31.0031 11.4395 31.1173 11.6511 31.1448 11.8809C31.1903 12.167 31.2031 12.4572 31.1829 12.7461C30.8435 16.2158 29.3789 24.6363 28.6333 28.5209C28.3186 30.1656 27.6988 30.7181 27.0962 30.7721C25.79 30.8893 24.7983 29.9293 23.534 29.12C21.5546 27.8549 20.4352 27.0735 18.5148 25.8307C16.2932 24.4037 17.733 23.6186 18.9992 22.3368C19.331 22 25.0844 16.893 25.1969 16.4298C25.2113 16.3618 25.2094 16.2914 25.1912 16.2242C25.173 16.1571 25.139 16.095 25.092 16.0428C25.0237 15.9998 24.9458 15.9733 24.8649 15.9655C24.784 15.9578 24.7023 15.9689 24.6267 15.9982C24.4284 16.0428 21.266 18.0819 15.1395 22.1154C14.2407 22.7182 13.4277 23.0115 12.7005 22.9954C11.8957 22.9786 10.3511 22.5526 9.20308 22.1879C7.79573 21.7414 6.67634 21.5051 6.77359 20.7461C6.82317 20.3492 7.38064 19.9454 8.446 19.5349Z" fill="white"/>
<defs>
<linearGradient id="paint0_linear_3_9" x1="0" y1="20" x2="41" y2="20" gradientUnits="userSpaceOnUse">
<stop stop-color="#2AABEE"/>
<stop offset="1" stop-color="#229ED9"/>
</linearGradient>
</defs>
</svg>
