<svg width="41" height="41" viewBox="0 0 41 41" fill="none" xmlns="http://www.w3.org/2000/svg">
<path d="M0 19.68C0 10.4026 0 5.75907 2.88144 2.88144C5.76288 0.00381386 10.4026 0 19.68 0H21.32C30.5974 0 35.2409 0 38.1186 2.88144C40.9962 5.76288 41 10.4026 41 19.68V21.32C41 30.5974 41 35.2409 38.1186 38.1186C35.2371 40.9962 30.5974 41 21.32 41H19.68C10.4026 41 5.75907 41 2.88144 38.1186C0.00381386 35.2371 0 30.5974 0 21.32V19.68Z" fill="white"/>
<path d="M21.3581 28.7953C12.6127 28.7953 7.62786 22.7998 7.41809 12.8244H11.8041C11.9472 20.1472 15.1776 23.2479 17.7348 23.8849V12.8244H21.8596V19.1403C24.3845 18.8676 27.039 15.99 27.9333 12.8244H32.0581C31.3716 16.7261 28.494 19.6037 26.4478 20.786C28.494 21.7395 31.7702 24.2548 33.0173 28.7953H28.4692C27.4947 25.7442 25.0653 23.3986 21.852 23.0744V28.7953H21.3581Z" fill="black"/>
</svg>
