<svg width="41" height="40" viewBox="0 0 41 40" fill="none" xmlns="http://www.w3.org/2000/svg">
<path d="M0 19.2C0 10.1488 0 5.6186 2.88144 2.81116C5.76288 0.00372084 10.4026 0 19.68 0H21.32C30.5974 0 35.2409 0 38.1186 2.81116C40.9962 5.62233 41 10.1488 41 19.2V20.8C41 29.8512 41 34.3814 38.1186 37.1888C35.2371 39.9963 30.5974 40 21.32 40H19.68C10.4026 40 5.75907 40 2.88144 37.1888C0.00381386 34.3777 0 29.8512 0 20.8V19.2Z" fill="#0077FF"/>
<path d="M21.3582 28.093C12.6128 28.093 7.62792 22.2437 7.41815 12.5116H11.8042C11.9472 19.6558 15.1776 22.6809 17.7349 23.3023V12.5116H21.8597V18.6735C24.3845 18.4074 27.039 15.6 27.9334 12.5116H32.0582C31.3717 16.3181 28.4941 19.1256 26.4479 20.2791C28.4941 21.2093 31.7702 23.6633 33.0174 28.093H28.4693C27.4948 25.1163 25.0653 22.8279 21.8521 22.5116V28.093H21.3582Z" fill="white"/>
</svg>
