<svg width="41" height="40" viewBox="0 0 41 40" fill="none" xmlns="http://www.w3.org/2000/svg">
<path d="M0 19.2C0 10.1488 -2.72795e-06 5.6186 2.88144 2.81116C5.76288 0.00371818 10.4025 0 19.68 0H21.32C30.5975 0 35.2409 -2.66142e-06 38.1186 2.81116C40.9962 5.62232 41 10.1488 41 19.2V20.8C41 29.8512 41 34.3814 38.1186 37.1888C35.2371 39.9963 30.5975 40 21.32 40H19.68C10.4025 40 5.75907 40 2.88144 37.1888C0.00381113 34.3777 0 29.8512 0 20.8V19.2Z" fill="#FF0000"/>
<path d="M31.631 14.4186C31.4975 13.9344 31.2357 13.4931 30.8718 13.1391C30.5079 12.785 30.0548 12.5308 29.5581 12.4019C27.7351 11.9256 20.4256 11.9256 20.4256 11.9256C20.4256 11.9256 13.1162 11.9256 11.2931 12.4019C10.7977 12.532 10.346 12.7867 9.98321 13.1407C9.62043 13.4946 9.3593 13.9353 9.22596 14.4186C8.73777 16.1972 8.73776 19.907 8.73776 19.907C8.73776 19.907 8.73777 23.6168 9.22596 25.3954C9.3593 25.8787 9.62043 26.3194 9.98321 26.6733C10.346 27.0273 10.7977 27.282 11.2931 27.4121C13.1162 27.8884 20.4256 27.8884 20.4256 27.8884C20.4256 27.8884 27.7351 27.8884 29.5581 27.4121C30.0534 27.2821 30.5049 27.0273 30.8674 26.6733C31.2299 26.3194 31.4906 25.8786 31.6234 25.3954C32.1116 23.6168 32.1116 19.907 32.1116 19.907C32.1116 19.907 32.1192 16.1972 31.631 14.4186ZM18.0915 23.3284V16.4856L24.1671 19.907L18.0915 23.3284Z" fill="white"/>
</svg>
