<svg width="41" height="41" viewBox="0 0 41 41" fill="none" xmlns="http://www.w3.org/2000/svg">
<path d="M0 19.68C0 10.4026 -2.72795e-06 5.75907 2.88144 2.88144C5.76288 0.00381113 10.4025 0 19.68 0H21.32C30.5975 0 35.2409 -2.72795e-06 38.1186 2.88144C40.9962 5.76288 41 10.4026 41 19.68V21.32C41 30.5974 41 35.2409 38.1186 38.1186C35.2371 40.9962 30.5975 41 21.32 41H19.68C10.4025 41 5.75907 41 2.88144 38.1186C0.00381113 35.2371 0 30.5974 0 21.32V19.68Z" fill="white"/>
<path d="M31.6311 14.779C31.4976 14.2828 31.2357 13.8304 30.8718 13.4675C30.5079 13.1046 30.0548 12.844 29.5582 12.7119C27.7351 12.2237 20.4257 12.2237 20.4257 12.2237C20.4257 12.2237 13.1162 12.2237 11.2931 12.7119C10.7977 12.8452 10.346 13.1064 9.98324 13.4691C9.62046 13.8319 9.35933 14.2836 9.22599 14.779C8.7378 16.6021 8.73779 20.4046 8.73779 20.4046C8.73779 20.4046 8.7378 24.2071 9.22599 26.0302C9.35933 26.5256 9.62046 26.9773 9.98324 27.3401C10.346 27.7029 10.7977 27.964 11.2931 28.0974C13.1162 28.5856 20.4257 28.5856 20.4257 28.5856C20.4257 28.5856 27.7351 28.5856 29.5582 28.0974C30.0534 27.9641 30.5049 27.7029 30.8674 27.3401C31.2299 26.9773 31.4906 26.5256 31.6234 26.0302C32.1116 24.2071 32.1116 20.4046 32.1116 20.4046C32.1116 20.4046 32.1192 16.6021 31.6311 14.779ZM18.0915 23.9116V16.8977L24.1671 20.4046L18.0915 23.9116Z" fill="black"/>
</svg>
